<svg>
  <symbol xmlns="http://www.w3.org/2000/svg" viewBox="0 0 24 24" id="arrow-down">
    <title>Arrow Down</title>
    <path d="M3.85,7.65a.49.49,0,0,0-.7.7l8.5,8.5a.49.49,0,0,0,.68,0l0,0,8.5-8.5a.49.49,0,1,0-.7-.7h0L12,15.79Z"/>
  </symbol>
  <symbol xmlns="http://www.w3.org/2000/svg" viewBox="0 0 24 24" id="arrow-up">
    <title>Arrow Up</title>
    <path d="M20.15,16.85a.49.49,0,0,0,.7-.7l-8.5-8.5a.49.49,0,0,0-.68,0l0,0-8.5,8.5a.49.49,0,0,0,.7.7L12,8.71Z"/>
  </symbol>
  <symbol xmlns="http://www.w3.org/2000/svg" viewBox="0 0 24 24" id="magnifier">
    <title>Magnifier</title>
    <path d="M10.5,0a10.5,10.5,0,0,1,7.77,17.56l5.58,5.59a.49.49,0,0,1-.7.7h0l-5.59-5.58A10.5,10.5,0,1,1,10.5,0Zm0,1A9.5,9.5,0,1,0,20,10.5,9.5,9.5,0,0,0,10.5,1Z"/>
  </symbol>
  <symbol xmlns="http://www.w3.org/2000/svg" viewBox="0 0 24 24" id="quotes">
    <title>Quotes</title>
    <path d="M19.05,21.51A5,5,0,0,1,14.48,19a9.36,9.36,0,0,1-1.32-5.11,12.68,12.68,0,0,1,2-7,13.6,13.6,0,0,1,6-4.95l.69,1.39a10.41,10.41,0,0,0-4.14,3.18A7,7,0,0,0,16,11a5.34,5.34,0,0,0,.23,1.63,4.43,4.43,0,0,1,2.87-1A5,5,0,0,1,22.57,13,4.76,4.76,0,0,1,24,16.55a4.88,4.88,0,0,1-4.95,5Zm-13.17,0A5,5,0,0,1,1.32,19,9.36,9.36,0,0,1,0,13.92,12.76,12.76,0,0,1,2,7,13.71,13.71,0,0,1,8,2l.7,1.39A10.41,10.41,0,0,0,4.53,6.57,7,7,0,0,0,2.79,11,5.05,5.05,0,0,0,3,12.61a4.42,4.42,0,0,1,2.86-1A5,5,0,0,1,9.41,13a4.76,4.76,0,0,1,1.43,3.6,4.88,4.88,0,0,1-5,5Z"/>
  </symbol>
  <symbol xmlns="http://www.w3.org/2000/svg" viewBox="0 0 24 24" id="close">
    <title>Close</title>
    <path d="M.15.15a.49.49,0,0,1,.68,0l0,0h0L12,11.29,23.15.15a.48.48,0,0,1,.63-.06l.07.06a.49.49,0,0,1,0,.68l0,0h0L12.71,12,23.85,23.15a.48.48,0,0,1,.06.63l-.06.07a.49.49,0,0,1-.68,0l0,0h0L12,12.71.85,23.85a.48.48,0,0,1-.63.06l-.07-.06a.49.49,0,0,1,0-.68l0,0h0L11.29,12,.15.85A.48.48,0,0,1,.09.22Z"/>
  </symbol>
</svg>
